<svg version="1.1" xmlns="http://www.w3.org/2000/svg" style="display: block;" viewBox="0 0 2048 2048" width="1024" height="1024" preserveAspectRatio="none">
<path transform="translate(0,0)" fill="rgb(255,255,255)" d="M 0 0 L 2048 0 L 2048 2048 L 0 2048 L 0 0 z"/>
<path transform="translate(0,0)" fill="rgb(56,58,138)" d="M 749.157 614.879 C 820.816 494.33 929.967 408.358 1066.76 373.682 C 1195.22 341.345 1331.28 361.922 1444.43 430.8 C 1564.87 502.409 1651.82 619.06 1686.03 754.942 C 1721.24 891.189 1700.91 1035.84 1629.5 1157.11 C 1559.69 1273.29 1447.1 1357.47 1315.91 1391.57 C 1183.38 1424.77 1051.79 1401.45 934.255 1333.94 C 891.011 1356.54 839.271 1339.11 794.37 1331.43 C 732.992 1320.43 718.915 1372.69 679.922 1405.1 C 656.655 1424.43 596.141 1446.69 571.847 1416.44 C 569.278 1413.24 564.807 1401.96 566.305 1397.78 C 575.089 1373.28 591.347 1351.81 598.521 1326.14 C 635.453 1227.05 651.925 1122.11 664.93 1017.62 C 669.496 980.94 669.83 939.675 676.237 903.884 C 677.488 815.465 685.135 759.683 718.644 677.211 C 727.998 656.043 738.176 635.25 749.157 614.879 z"/>
<path transform="translate(0,0)" fill="rgb(179,201,28)" d="M 676.237 903.884 C 680.637 935.066 680.183 958.563 686.835 991.4 C 711.256 1113.59 779.601 1222.59 878.948 1297.8 C 896.533 1311.1 915.012 1323.17 934.255 1333.94 C 891.011 1356.54 839.271 1339.11 794.37 1331.43 C 732.992 1320.43 718.915 1372.69 679.922 1405.1 C 656.655 1424.43 596.141 1446.69 571.847 1416.44 C 569.278 1413.24 564.807 1401.96 566.305 1397.78 C 575.089 1373.28 591.347 1351.81 598.521 1326.14 C 635.453 1227.05 651.925 1122.11 664.93 1017.62 C 669.496 980.94 669.83 939.675 676.237 903.884 z"/>
<path transform="translate(0,0)" fill="rgb(255,255,255)" d="M 1178.69 423.444 C 1291.68 420.095 1404.09 464.662 1488.11 539.451 C 1581.42 622.414 1637.56 739.33 1643.98 864.025 C 1651.01 986.509 1608.81 1106.73 1526.75 1197.93 C 1443.78 1290.57 1330.98 1341.06 1207.55 1347.75 C 1090.79 1349.56 977.681 1307.08 890.98 1228.86 C 799.935 1146.45 745.616 1031.06 740.116 908.374 C 734.122 785.811 776.564 665.807 858.28 574.265 C 940.42 482.901 1055.94 428.527 1178.69 423.444 z"/>
<path transform="translate(0,0)" fill="rgb(217,36,31)" d="M 925.792 776.714 L 1048.95 776.733 C 1069.15 776.695 1091.96 776.049 1112.06 777.549 C 1117.73 777.972 1125.13 782.622 1129.29 786.69 C 1147.4 804.402 1141.01 837.14 1140.48 859.976 C 1140.16 873.407 1140.11 886.097 1140.17 899.511 C 1156.35 899.576 1172.52 899.46 1188.7 899.163 C 1188.72 848.529 1185.92 828.314 1172.12 779.398 C 1211.5 778.859 1251.67 779.293 1291.13 779.263 C 1291.12 791.335 1289.9 805.354 1289.4 817.628 C 1288.47 842.27 1287.74 866.918 1287.21 891.572 L 1284.07 1174.65 L 1188.01 1174.72 C 1187.97 1148.45 1187.31 1121.75 1186.94 1095.44 C 1186.03 1049.51 1184.16 1003.15 1182.71 957.193 C 1168.56 957.117 1154.48 957.044 1140.37 958.075 C 1139.02 1013.65 1149.14 1062.58 1106.87 1107 C 1064.07 1151.98 982.35 1150.32 939.172 1107.54 C 893.078 1061.87 894.189 976.61 939.35 930.865 C 968.11 901.733 1002.63 900.827 1040.57 901.101 C 1040.49 895.112 1040.62 887.83 1039.67 881.987 C 1031.44 831.613 961.561 839.041 925.708 845.343 C 924.965 823.652 925.651 798.683 925.792 776.714 z"/>
<path transform="translate(0,0)" fill="rgb(255,255,255)" d="M 1018.65 960.431 C 1028.94 960.558 1033.28 960.725 1043 963.97 C 1041.67 968.289 1038.02 979.579 1038.04 983.605 C 1038.34 1002.51 1042.58 1018.84 1038.47 1037.76 C 1032.57 1064.94 1014.79 1080.21 986.082 1073.18 C 981.644 1071.64 977.52 1069.31 973.91 1066.31 C 950.339 1046.49 952.377 1002.68 971.818 980.434 C 984.461 965.965 1000.23 961.66 1018.65 960.431 z"/>
<path transform="translate(0,0)" fill="rgb(217,36,31)" d="M 1324.99 779.388 L 1449.17 779.412 L 1446.63 793.458 C 1441.79 795.621 1436.88 798.129 1432.11 800.477 C 1430.3 918.227 1429.26 1035.99 1429 1153.75 L 1428.99 1174.53 L 1333.03 1174.6 C 1332.24 1065.12 1330.85 955.653 1328.86 846.191 C 1328.32 823.789 1325.38 800.845 1324.99 779.388 z"/>
<path transform="translate(0,0)" fill="rgb(111,179,41)" d="M 1495.55 610.743 C 1500.44 613.121 1509.73 623.171 1513.54 627.366 C 1543.07 660.249 1567.1 697.68 1584.71 738.215 C 1628.77 837.995 1631.57 951.153 1592.51 1052.99 C 1552.91 1153.98 1474.6 1234.94 1374.98 1277.88 C 1269.45 1324.03 1168.44 1321.06 1062.72 1279.74 C 1054.74 1276.64 1036.14 1269.16 1029.65 1264.81 C 1031.3 1264.4 1047.72 1270.56 1050.93 1271.68 C 1073.98 1279.8 1097.69 1285.94 1121.79 1290.02 C 1227.42 1306.86 1331.66 1278.94 1417.81 1216.4 C 1507.09 1151.75 1566.88 1054.15 1583.92 945.249 C 1596.84 862.652 1585.93 770.181 1548.5 695.05 C 1532.67 663.274 1516.38 639.371 1495.55 610.743 z"/>
<path transform="translate(0,0)" fill="rgb(217,36,31)" d="M 1407.76 620.66 C 1411.95 624.911 1442.12 692.175 1446.87 702.691 C 1432.82 716.964 1422.85 726.768 1405.58 737.815 C 1363.82 764.515 1312.12 771.063 1264.14 760.412 C 1233.23 753.549 1210.96 740.897 1187.12 720.373 C 1181.78 715.778 1173.95 708.848 1170.14 702.936 L 1170.62 700.762 C 1182.51 673.879 1195.4 647.512 1207.07 620.481 C 1228.26 667.022 1264.42 751.14 1332.04 724.105 C 1368.62 709.48 1393.53 655.895 1407.76 620.66 z"/>
<path transform="translate(0,0)" fill="rgb(217,36,31)" d="M 1300.6 643.581 C 1320.51 639.553 1339.89 652.524 1343.75 672.468 C 1347.62 692.411 1334.49 711.682 1314.51 715.384 C 1294.77 719.042 1275.77 706.096 1271.95 686.383 C 1268.13 666.669 1280.92 647.563 1300.6 643.581 z"/>
<path transform="translate(0,0)" fill="rgb(12,130,183)" d="M 829.718 1085.24 C 781.14 990.91 773.445 901.061 795.944 797.527 C 800.803 799.533 803.727 800.363 808.734 801.765 C 804.633 822.463 800.655 838.308 797.923 859.82 C 787.447 936.621 799.504 1014.81 832.627 1084.89 L 829.718 1085.24 z"/>
<path transform="translate(0,0)" fill="rgb(56,58,138)" d="M 1261.05 470.587 C 1264.58 470.981 1266.68 471.551 1270.14 472.419 C 1272.92 475.903 1269.57 505.328 1268.94 511.175 C 1275.02 501.575 1282.74 486.464 1288.4 476.156 L 1301 479.394 L 1301.08 518.498 C 1306.32 506.807 1311.99 495.314 1318.08 484.042 L 1327.79 486.682 C 1325.82 491.573 1323.27 496.411 1320.91 501.145 C 1314.7 512.851 1308.53 524.934 1301.69 536.257 L 1291.31 533.479 C 1291.37 519.472 1291.1 505.204 1290.99 491.176 C 1284.4 503.731 1277.17 516.476 1270.28 528.895 C 1266.6 527.98 1262.61 527.214 1258.88 526.423 C 1258.99 508.958 1259.55 487.885 1261.05 470.587 z"/>
<path transform="translate(0,0)" fill="rgb(56,58,138)" d="M 924.854 579.566 C 930.468 581.676 946.33 603.959 951.301 609.201 C 966.067 624.771 940.236 646.142 929.115 635.971 C 927.945 627.911 935.289 628.94 940.627 628.722 C 948.582 622.2 946.666 619.622 941.325 611.821 C 936.903 622.254 930.291 629.813 917.852 624.225 C 912.259 621.693 907.925 617.011 905.83 611.24 C 898.93 591.742 915.549 592.454 921.217 587.779 C 920.614 582.209 920.913 583.291 924.854 579.566 z"/>
<path transform="translate(0,0)" fill="rgb(255,255,255)" d="M 920.844 594.888 C 932.01 597.748 940.465 607.224 929.206 617.116 C 917.136 614.659 907.945 603.76 920.844 594.888 z"/>
<path transform="translate(0,0)" fill="rgb(56,58,138)" d="M 1063.94 486.013 L 1066.07 486.096 C 1066.9 487.501 1069.33 491.379 1068.17 492.697 C 1063.38 498.104 1049.34 501.786 1042.74 504.141 L 1046.93 514.177 C 1054.89 511.809 1063.58 508.672 1071.52 505.998 L 1074.79 515.261 L 1050.04 524.294 L 1055.51 537.696 C 1062.36 534.903 1069.8 532.316 1076.78 529.757 L 1081.06 528.454 L 1082.8 529.557 C 1084.16 532.626 1084.89 533.568 1084.51 536.921 C 1081.51 539.166 1053.73 548.651 1048.27 550.627 C 1043.74 534.945 1035.11 513.798 1029.14 498.487 C 1040 494.103 1052.74 489.933 1063.94 486.013 z"/>
<path transform="translate(0,0)" fill="rgb(56,58,138)" d="M 1374.37 521.508 C 1376.66 522.234 1377.96 522.937 1380.12 523.977 C 1380.67 525.397 1381.04 526.407 1381.49 527.879 L 1381.85 529.093 C 1399.2 527.826 1393.23 529.761 1401.55 540.352 C 1407.77 539.096 1417.35 538.861 1419.29 547.045 C 1421.8 557.624 1410.3 573.773 1405.03 583.031 L 1396.2 578.068 C 1400.2 570.967 1411.97 554.255 1407.81 546.975 C 1403.42 545.439 1401.01 546.949 1397.87 549.719 C 1393.13 556.63 1389.17 564.377 1385.17 571.772 L 1376.21 566.882 C 1380.57 559.415 1391.89 543.083 1386.12 535.203 L 1383.7 535.374 C 1374.41 540.613 1370.15 551.765 1365.51 561.182 L 1356.02 556.931 C 1362.24 545.179 1368.36 533.371 1374.37 521.508 z"/>
<path transform="translate(0,0)" fill="rgb(56,58,138)" d="M 1334.87 508.668 C 1342 507.015 1349.47 509.328 1354.41 514.722 C 1359.36 520.116 1361.02 527.756 1358.76 534.718 C 1356.5 541.68 1350.66 546.885 1343.49 548.341 C 1332.61 550.55 1321.97 543.607 1319.61 532.758 C 1317.25 521.908 1324.05 511.176 1334.87 508.668 z"/>
<path transform="translate(0,0)" fill="rgb(255,255,255)" d="M 1337.05 516.863 C 1354.71 516.104 1351.78 531.156 1341.41 539.875 C 1324.22 541.87 1328.39 525.473 1337.05 516.863 z"/>
<path transform="translate(0,0)" fill="rgb(56,58,138)" d="M 973.417 545.075 C 976.667 544.893 980.328 545.031 983.373 546.232 C 988.985 548.508 993.375 553.048 995.46 558.734 C 1000.41 572.325 992.78 581.151 980.687 585.912 C 977.892 585.958 975 585.994 972.301 585.151 C 966.423 583.32 961.582 579.109 958.953 573.542 C 956.565 568.513 956.377 562.717 958.436 557.544 C 961.45 550.073 966.456 547.77 973.417 545.075 z"/>
<path transform="translate(0,0)" fill="rgb(255,255,255)" d="M 973.3 553.579 C 985.427 555.896 993.614 568.583 980.824 577.241 C 967.519 574.927 960.93 563.069 973.3 553.579 z"/>
<path transform="translate(0,0)" fill="rgb(56,58,138)" d="M 806.482 724.02 C 808.459 724.161 808.886 724.3 810.829 724.714 C 811.003 725.053 811.178 725.393 811.352 725.732 C 816.281 734.851 799.26 736.687 797.236 745.774 C 796.553 748.843 797.583 751.76 799.503 754.203 C 804.193 760.02 810.485 765.236 818.078 766.283 C 826.624 767.461 834.971 762.122 834.881 752.978 C 834.822 746.957 831.488 744.57 827.353 740.739 C 831.131 736.719 831.644 735.216 837.246 736.126 C 840.608 738.601 841.083 740.089 843.244 743.823 C 857.312 792.823 772.418 784.952 791.266 736.107 C 793.645 729.942 800.486 725.972 806.482 724.02 z"/>
<path transform="translate(0,0)" fill="rgb(56,58,138)" d="M 1433.09 561.01 C 1457.18 559.901 1458.79 576.941 1448.73 594.473 C 1443.16 590.718 1433.22 581.747 1427.18 581.375 L 1425.65 582.993 C 1425.19 586.839 1425.88 587.99 1427.11 591.618 C 1432.88 594.04 1439.26 590.54 1442.88 596.609 C 1442.28 600.55 1443.08 598.863 1440.34 601.827 C 1432.43 604.53 1422.53 598.491 1418.61 591.691 C 1416.08 587.378 1415.51 582.192 1417.03 577.43 C 1419.48 569.914 1426.43 564.604 1433.09 561.01 z"/>
<path transform="translate(0,0)" fill="rgb(255,255,255)" d="M 1436.58 568.675 C 1441.64 568.948 1445.01 571.487 1446.28 576.426 C 1445.47 580.951 1446.38 579.021 1443.56 582.508 C 1439.85 580.198 1434.48 577.602 1432.71 573.918 C 1433.46 570.594 1433.47 571.473 1436.58 568.675 z"/>
<path transform="translate(0,0)" fill="rgb(56,58,138)" d="M 1138.38 483.251 L 1139.57 483.393 C 1149.05 484.621 1159.39 492.708 1157.92 502.706 C 1150.98 510.595 1136.94 503.169 1134.1 510.346 C 1136.42 516.282 1141.61 517.733 1146.74 513.693 C 1151.9 509.616 1151.54 510.604 1157.62 510.707 C 1158.36 517.446 1152.06 521.976 1146.36 523.57 C 1121.79 530.44 1110.21 489.598 1138.38 483.251 z"/>
<path transform="translate(0,0)" fill="rgb(255,255,255)" d="M 1137.96 490.478 C 1141.98 491.801 1145.5 493.564 1146.76 497.963 C 1144.9 500.125 1146.08 499.243 1142.22 499.593 C 1138.17 500.333 1134.48 502.115 1132.39 498.18 C 1133.59 494.364 1135.03 493.44 1137.96 490.478 z"/>
<path transform="translate(0,0)" fill="rgb(56,58,138)" d="M 833.457 690.887 C 840.233 690.839 862.483 704.275 867.404 708.508 L 866.735 710.605 C 860.852 713.275 861.021 714.125 858.883 720.374 C 855.221 731.077 850.67 736.681 839.203 730.004 C 829.478 715.113 844.757 711.009 837.78 701.795 L 835.403 701.652 C 827.913 705.825 831.452 710.271 828.499 719.243 C 825.394 720.632 826.825 720.726 824.08 719.694 C 818.783 710.55 825.501 696.975 833.457 690.887 z"/>
<path transform="translate(0,0)" fill="rgb(255,255,255)" d="M 846.574 707.282 C 854.822 711.341 855.548 715.66 850.715 722.719 C 846.383 722.455 845.522 721.824 843.428 718.39 C 843.177 713.844 844.722 711.456 846.574 707.282 z"/>
<path transform="translate(0,0)" fill="rgb(56,58,138)" d="M 1192.2 481.345 L 1202.9 481.484 C 1205.67 490.683 1208.33 499.916 1210.86 509.182 C 1213.38 502.03 1217.39 480.52 1227.51 483.395 C 1229.71 489.721 1222 504.296 1219.1 511.305 C 1215.6 520.25 1207.54 546.869 1192.91 535.044 C 1191.29 533.731 1191.73 534.173 1191.59 531.946 C 1193.24 530.214 1192.51 530.67 1194.5 529.667 C 1197.24 528.278 1201.25 526.919 1203.19 524.456 C 1206.91 519.725 1194.15 489.223 1192.2 481.345 z"/>
<path transform="translate(0,0)" fill="rgb(56,58,138)" d="M 1469.42 583.643 C 1472.45 585.205 1472.57 585.091 1474.92 587.747 C 1475.05 589.627 1475.09 591.415 1474.89 593.29 C 1509.88 600.754 1478.96 624.813 1466.52 635.881 L 1459.69 629.197 L 1473.69 614.83 C 1475.35 613.174 1480.16 608.264 1479.77 606.601 C 1475.22 587.021 1451.89 616.641 1449.64 619.019 L 1442.46 612.929 C 1451.74 603.438 1460.73 593.672 1469.42 583.643 z"/>
<path transform="translate(0,0)" fill="rgb(56,58,138)" d="M 889.252 615.985 C 901.511 616.639 911.405 630.19 919.991 639.374 L 912.679 646.133 C 906.573 640.337 893.48 622.677 885.257 628.644 C 881.693 636.97 885.117 639.401 890.415 645.26 L 903.245 657.798 L 896.123 665.12 C 888.046 656.662 876.354 646.35 867.593 638.2 C 869.54 635.863 871.757 632.476 874.498 631.707 L 877.157 633.273 C 883.319 626.631 874.553 624.446 889.252 615.985 z"/>
<path transform="translate(0,0)" fill="rgb(56,58,138)" d="M 1003.05 509.905 C 1011.16 516.219 1001.04 518.651 999.67 524.503 C 1001.3 527.722 1000.1 526.702 1003.01 528.045 L 1006.91 525.798 L 1008.3 526.233 C 1009.74 528.836 1010.6 529.926 1010.97 532.915 C 1008.96 534.508 1008.97 534.593 1007.23 536.5 C 1005.22 545.795 1020.67 554.962 1017.09 564.908 L 1012.44 567.065 C 1003.4 563.424 1005.91 543.902 991.432 542.564 L 990.196 542.46 C 987.764 538.729 988.155 540.624 988.095 536.809 L 990.883 534.475 C 991.966 531.243 990.088 523.808 989.815 519.164 C 991.739 514.192 998.163 512.113 1003.05 509.905 z"/>
<path transform="translate(0,0)" fill="rgb(56,58,138)" d="M 1112.82 489.134 L 1114.93 489.315 C 1116.84 493.678 1111.48 523.087 1109.99 528.905 C 1107.81 530.987 1104.57 531.209 1101.25 532.034 L 1085.09 508.589 L 1078.1 497.726 L 1087.9 494.821 C 1091.62 500.812 1098.74 512.735 1103.1 517.609 C 1103.88 510.177 1103.48 499.321 1105.96 492.43 C 1106.95 489.68 1109.94 489.738 1112.82 489.134 z"/>
<path transform="translate(0,0)" fill="rgb(56,58,138)" d="M 1181.36 480.05 C 1184.2 480.399 1185.87 480.294 1188.11 482.038 C 1188.34 484.862 1187.42 486.234 1186.27 488.83 C 1166.78 494.017 1180.52 505.642 1175.17 519.358 C 1172.18 521.748 1171.93 520.923 1167.13 521.158 C 1165.79 514.895 1164.16 490.362 1165.61 483.042 C 1165.78 482.163 1167.17 481.911 1168.26 481.476 C 1175.84 484.013 1175.03 484.348 1181.36 480.05 z"/>
<path transform="translate(0,0)" fill="rgb(56,58,138)" d="M 851.007 659.831 C 853.735 661.773 853.928 661.673 855.634 664.691 C 855.863 668.219 853.604 671.091 851.743 674.255 C 859.535 681.384 867.447 687.013 875.915 693.259 C 873.351 696.787 872.002 699.241 868.363 701.56 C 860.867 694.674 843.928 683.677 838.876 677.577 L 840.116 675.11 C 842.828 673.585 843.301 673.473 845.587 671.259 C 846.888 665.339 846.973 664.254 851.007 659.831 z"/>
<path transform="translate(0,0)" fill="rgb(56,58,138)" d="M 861.971 647.561 C 864.83 648.955 887.166 669.013 890.825 672.251 L 885.135 679.183 C 876.325 672.656 864.383 662.044 855.735 654.766 L 861.971 647.561 z"/>
<path transform="translate(0,0)" fill="rgb(87,155,177)" d="M 832.627 1084.89 C 835.352 1089.91 855.85 1123.86 856.187 1125.95 C 849.527 1120.36 834.602 1094.1 829.718 1085.24 L 832.627 1084.89 z"/>
<path transform="translate(0,0)" fill="rgb(56,58,138)" d="M 849.651 636.619 L 856.687 642.472 L 850.174 651.566 L 842.173 644.136 C 845.778 641.327 846.636 640.167 849.651 636.619 z"/>
<path transform="translate(0,0)" fill="rgb(211,224,229)" d="M 856.187 1125.95 C 860.641 1129.05 861.145 1130.22 864.043 1134.89 C 858.707 1133.46 858.296 1130.86 856.187 1125.95 z"/>
<path transform="translate(0,0)" fill="rgb(111,179,41)" d="M 554.719 551.343 C 577.592 550.44 590.741 551.554 597.153 524.575 C 606.628 484.707 636.23 476.799 672.482 479.851 C 649.282 643.368 586.504 802.972 475.233 926.809 C 441.069 964.832 406.582 996.153 360.696 1019.36 C 341.205 934.901 400.2 840.144 451.799 777.402 C 479.972 743.145 510.729 719.431 499.11 670.274 C 494.372 646.645 471.925 611.262 470.883 592.218 L 468.579 593 C 469.676 600.753 470.786 607.665 474.324 617.352 C 481.654 637.421 505.453 678.448 487.925 698.378 C 482.133 704.964 457.587 694.975 453.408 685.867 C 432.646 640.614 455.915 540.592 499.477 514.735 C 512.447 517.079 522.913 518.993 536.008 520.163 C 535.475 537.101 533.314 548.997 554.719 551.343 z"/>
<path transform="translate(0,0)" fill="rgb(179,201,28)" d="M 468.579 593 C 466.17 587.432 470.004 561.668 472.846 556.361 L 474.046 556.008 C 470.274 566.3 470.737 581.066 470.883 592.218 L 468.579 593 z"/>
<path transform="translate(0,0)" fill="rgb(179,201,28)" d="M 667.312 567.71 C 668.412 572.367 668.315 587.296 668.193 592.789 C 666.645 662.934 653.842 740.494 638.214 808.656 C 602.949 962.47 536.888 1120.95 426.549 1236.21 C 404.886 1258.84 375.375 1285.25 348.578 1301.63 C 352.086 1268.88 353.694 1251.8 349.671 1218.74 C 340.231 1156.26 316.76 1138.85 259.675 1122.09 C 320.627 1086.55 372.807 1066.13 428.994 1018.1 C 547.142 917.092 616.026 778.897 652.939 629.763 C 657.069 613.077 661.389 582.66 667.312 567.71 z"/>
<path transform="translate(0,0)" fill="rgb(111,179,41)" d="M 678.196 656.681 C 679.987 662.834 679.85 688.206 679.842 695.17 C 679.553 765.734 675.345 836.228 667.236 906.325 C 660.809 960.101 652.631 1013.65 642.716 1066.9 C 625.75 1160.26 605.154 1250.96 569.64 1339.42 C 559.404 1363.39 544.863 1398.89 524.419 1415.28 C 501.764 1433.45 495.389 1346.41 472.535 1344.35 C 453.813 1342.66 425.285 1363.06 410.461 1371.05 C 397.737 1377.63 377 1386.01 363.308 1382.31 C 303.22 1366.09 405.452 1292.7 419.134 1280.13 C 453.322 1248.18 483.603 1212.28 509.343 1173.19 C 588.009 1055.17 628.415 924.946 654.852 787.207 C 660.383 757.79 665.704 728.335 670.813 698.842 C 673.081 685.847 674.755 668.924 678.196 656.681 z"/>
<path transform="translate(0,0)" fill="rgb(217,36,31)" d="M 677.708 1459.66 C 718.878 1459.8 760.296 1459.71 801.482 1460.02 C 809.831 1460.01 818.959 1464.67 827.087 1464.82 C 855.508 1465.33 884.077 1464.8 912.505 1464.53 C 921.977 1464.43 932.099 1464.32 941.421 1463.23 C 938.067 1472.25 933.721 1480.77 929.513 1489.43 L 915.285 1489.31 L 915.456 1604 L 872.241 1604 C 871.697 1566.4 872.203 1527.53 872.198 1489.82 L 844.678 1489.83 L 844.899 1517.75 L 845.011 1604.02 L 801.709 1603.88 C 801.83 1583.23 803.501 1554.07 798.27 1535.09 L 776.79 1534.99 C 777.228 1554.23 778.758 1573.94 765.036 1589.41 C 746.252 1610.26 710.355 1610.16 689.897 1591.62 C 670.924 1574.43 670.095 1541.73 687.878 1523.34 C 699.945 1510.86 716.736 1509.93 733.084 1509.82 C 730.998 1490.65 723.505 1486.49 704.114 1486.57 C 695.408 1486.61 686.43 1486.84 677.703 1486.97 L 677.708 1459.66 z"/>
<path transform="translate(0,0)" fill="rgb(255,255,255)" d="M 727.835 1535.42 C 731.084 1535.41 729.787 1534.81 732.061 1536.62 C 735.738 1552.42 733.014 1578.8 710.254 1571.89 C 700.984 1564.48 697.39 1553.63 706.099 1543.95 C 712.749 1536.57 718.637 1536.1 727.835 1535.42 z"/>
<path transform="translate(0,0)" fill="rgb(255,255,255)" d="M 784.139 1481.97 C 798.966 1482.52 803.944 1495.04 799.977 1508.96 C 799.655 1510.09 797.489 1509.83 796.25 1509.93 L 777.001 1510.01 C 776.99 1503.24 776.169 1494.58 777.328 1488.27 C 778.047 1484.35 780.851 1483.7 784.139 1481.97 z"/>
<path transform="translate(0,0)" fill="rgb(56,58,138)" d="M 477.282 411.172 C 469.842 405.749 455.395 391.618 460.398 381.657 C 463.156 380.41 462.793 381.219 464.876 380.848 C 505.283 373.657 517.718 306.436 561.08 306.211 C 604.587 305.986 642.277 357.829 641.305 398.954 C 640.933 414.657 638.428 428.745 626.657 440.23 C 605.399 459.549 599.009 454.037 593.259 484.708 C 591.901 480.489 589.048 471.384 589.958 467.293 C 592.639 455.231 600.283 441.543 604.39 430.028 C 609.677 415.205 611.627 400.784 617.621 386.172 C 603.945 380.873 605.525 367.841 603.499 354.912 C 592.675 362.614 573.718 373.947 561.19 377.894 C 527.083 388.638 533.605 399.577 518.405 426.38 C 532.511 475.823 563.061 487.687 554.719 551.343 C 533.314 548.997 535.475 537.101 536.008 520.163 C 522.913 518.993 512.447 517.079 499.477 514.735 C 480.783 506.889 466.159 494.98 458.471 475.899 C 446.762 446.838 457.249 430.844 477.282 411.172 z"/>
<path transform="translate(0,0)" fill="rgb(111,179,41)" d="M 680.263 480.332 C 736.172 499.889 750.36 561.708 749.157 614.879 C 738.176 635.25 727.998 656.043 718.644 677.211 C 710.949 674.284 704.109 669.478 698.749 663.229 C 671.388 631.626 676.654 521.156 680.263 480.332 z"/>
<path transform="translate(0,0)" fill="rgb(111,179,41)" d="M 1237.3 1497.36 C 1250.34 1498.6 1256.68 1501.41 1264.07 1512.49 C 1284.16 1489.8 1322.98 1492.63 1327.02 1524.48 C 1329.91 1547.36 1328.12 1578.34 1327.97 1602.11 C 1319.03 1602.06 1309.95 1602.18 1300.99 1602.22 C 1300.82 1586.32 1304.97 1536.94 1295.95 1525.69 C 1293.75 1522.93 1290.84 1521.27 1287.3 1521.03 C 1283.05 1520.74 1278.87 1522.26 1275.8 1525.22 C 1264.58 1536.07 1268.91 1584.15 1269.06 1600.1 C 1268.88 1600.76 1268.35 1601.27 1267.96 1601.83 C 1261.67 1602.71 1248.91 1602.2 1242.08 1602.12 C 1242.02 1581.33 1245.34 1546.75 1238.24 1527.11 C 1233.98 1515.33 1212.48 1522.8 1211.3 1535.19 C 1209.21 1557.07 1210.53 1580.1 1210.51 1602.4 L 1183.51 1602.64 L 1183.35 1500.33 L 1208.19 1500.43 L 1209.15 1511.66 C 1218.53 1500.64 1223.49 1498.98 1237.3 1497.36 z"/>
<path transform="translate(0,0)" fill="rgb(111,179,41)" d="M 1114.74 1498.38 C 1164.48 1494.74 1167.76 1523.74 1166.2 1564.02 C 1165.73 1576.15 1166.07 1590.18 1166 1602.45 C 1161.19 1602.57 1146.52 1603.51 1142.94 1601.57 C 1142.34 1599.77 1141.85 1598.26 1141.34 1596.42 L 1140.94 1594.93 C 1135.42 1596.06 1126.7 1605.54 1113.73 1605.54 C 1101.16 1605.54 1094.19 1603.37 1084.53 1594.84 C 1079.32 1587.78 1075.77 1580.79 1076.11 1571.83 C 1077.42 1537 1116.01 1539.08 1140.35 1539.3 C 1136.66 1511.19 1109.81 1517.66 1091.84 1528.68 L 1082.38 1507.75 C 1093.58 1501.74 1102.33 1499.83 1114.74 1498.38 z"/>
<path transform="translate(0,0)" fill="rgb(255,255,255)" d="M 1115.13 1558.19 C 1123.67 1557.62 1130.92 1557.76 1139.45 1557.92 C 1139.23 1571.47 1139.86 1577.69 1126.74 1584.28 C 1100.85 1588.1 1093.95 1565.45 1115.13 1558.19 z"/>
<path transform="translate(0,0)" fill="rgb(111,179,41)" d="M 981.684 1459.91 C 1011.46 1459.48 1041.82 1459.72 1071.65 1459.67 L 1071.28 1484.74 C 1050.94 1484.63 1030.6 1484.71 1010.27 1484.95 L 1010.5 1517.91 L 1064.23 1517.82 C 1064.49 1525.62 1064.32 1534 1064.31 1541.85 C 1061.57 1544 1016.5 1543.15 1010.46 1543.15 L 1010.29 1602.85 L 981.752 1602.68 L 981.684 1459.91 z"/>
<path transform="translate(0,0)" fill="rgb(111,179,41)" d="M 1504.79 1500.03 L 1532.59 1499.99 C 1523.25 1527.05 1513.68 1554.02 1503.86 1580.91 C 1490.24 1620.41 1487.02 1653.41 1435.72 1643.34 C 1437.58 1636.35 1439.06 1627.62 1440.47 1620.39 C 1457.51 1623.94 1463.43 1620.71 1469.02 1603.94 C 1457.08 1572.51 1438.84 1531.16 1429.12 1500.26 L 1457.54 1500.11 C 1465.59 1523.06 1475.21 1549 1481.95 1572.14 C 1488.96 1547.92 1496.58 1523.87 1504.79 1500.03 z"/>
<path transform="translate(0,0)" fill="rgb(111,179,41)" d="M 1392.65 1452.3 L 1419.91 1452.09 L 1419.89 1602.06 L 1392.53 1602.51 C 1391.05 1554.81 1392.35 1500.38 1392.65 1452.3 z"/>
<path transform="translate(0,0)" fill="rgb(56,58,138)" d="M 1223.69 1661.99 L 1240.01 1661.9 L 1235.14 1678.77 C 1230.68 1691.34 1223.62 1720.65 1220.24 1734.03 L 1203.57 1734 L 1189.81 1684.99 C 1185.8 1701.23 1181.16 1717.44 1177.09 1733.79 L 1159.69 1733.89 C 1154.23 1710.15 1147.33 1685.84 1140.9 1662.31 L 1157.12 1662.19 C 1161.61 1679.41 1166.1 1696.57 1169.03 1714.12 L 1182.95 1662.1 L 1197.43 1661.98 C 1202.13 1678.77 1207.4 1696.47 1211.12 1713.42 C 1215.6 1697.54 1219.8 1678.27 1223.69 1661.99 z"/>
<path transform="translate(0,0)" fill="rgb(111,179,41)" d="M 1345.73 1500.23 L 1372.8 1499.99 L 1372.8 1602.34 C 1364.36 1602.77 1354.39 1602.61 1345.83 1602.69 C 1345.53 1568.54 1345.5 1534.38 1345.73 1500.23 z"/>
<path transform="translate(0,0)" fill="rgb(217,36,31)" d="M 843.87 1399.66 C 848.06 1401.18 844.647 1414.78 851.097 1422.14 C 873.425 1447.6 903.402 1441.63 927.633 1422.34 C 933.151 1427.06 938.563 1432.27 943.876 1437.25 C 939.711 1439.89 935.042 1442.49 930.756 1444.99 C 901.675 1459.57 851.827 1463.38 827.687 1435.37 C 816.364 1422.23 833.069 1407.11 843.87 1399.66 z"/>
<path transform="translate(0,0)" fill="rgb(56,58,138)" d="M 1322.95 1681.18 C 1326.52 1680.85 1330.48 1680.28 1333.94 1681.16 C 1335.97 1681.67 1344.58 1687.64 1344.58 1687.63 C 1350.4 1684.19 1352.97 1680.63 1360.34 1680.32 C 1365.1 1680.11 1369.25 1680.78 1372.95 1684.33 C 1382.13 1693.13 1379.28 1720.98 1379.09 1733.7 L 1364.35 1733.86 C 1364.23 1727.62 1365.33 1699.63 1362.93 1697.38 C 1344.16 1679.87 1346.85 1717.11 1346.94 1722.25 L 1346.92 1733.53 L 1332.72 1733.9 C 1332.49 1724.77 1336.53 1695.03 1324.98 1693.09 C 1322.85 1692.73 1320.68 1693.43 1319.17 1694.97 C 1313.3 1700.93 1315.15 1724.32 1315.19 1733.83 L 1300.83 1733.99 L 1300.99 1682.12 L 1302.44 1682.08 C 1317.11 1681.94 1311.22 1689.2 1322.95 1681.18 z"/>
<path transform="translate(0,0)" fill="rgb(56,58,138)" d="M 1257.6 1681.48 C 1272.3 1677.72 1287.26 1686.56 1291.07 1701.24 C 1294.87 1715.93 1286.07 1730.92 1271.4 1734.76 C 1256.66 1738.63 1241.6 1729.78 1237.78 1715.04 C 1233.96 1700.29 1242.84 1685.25 1257.6 1681.48 z"/>
<path transform="translate(0,0)" fill="rgb(255,255,255)" d="M 1260.02 1694 C 1279.49 1692.13 1282.28 1714.02 1267.38 1722.63 C 1249.33 1723.09 1247.29 1704.2 1260.02 1694 z"/>
<path transform="translate(0,0)" fill="rgb(56,58,138)" d="M 1038.72 1681.48 C 1053.47 1677.53 1068.62 1686.35 1072.47 1701.13 C 1076.31 1715.92 1067.38 1731 1052.56 1734.74 C 1037.91 1738.43 1023.01 1729.61 1019.21 1714.98 C 1015.41 1700.35 1024.12 1685.39 1038.72 1681.48 z"/>
<path transform="translate(0,0)" fill="rgb(255,255,255)" d="M 1043.24 1692.98 C 1044.73 1693 1044.86 1692.97 1046.51 1693.19 C 1050.28 1693.68 1053.65 1695.81 1055.7 1699.02 C 1061.32 1707.62 1057.43 1717.63 1049.01 1722.7 C 1030.23 1722.81 1028.53 1701.87 1043.24 1692.98 z"/>
<path transform="translate(0,0)" fill="rgb(56,58,138)" d="M 526.676 1661.99 C 542.236 1661.68 558.325 1661.82 573.93 1661.75 L 574.127 1675.04 L 542.166 1675.09 L 542.252 1690.79 C 551.328 1690.86 560.548 1690.72 569.637 1690.68 L 570.065 1703.9 C 563.312 1703.84 549.101 1703.31 543.03 1704.36 L 542.079 1705.98 L 542.129 1720.12 L 575.326 1720.06 L 575.563 1733.4 C 559.761 1734.08 542.691 1733.87 526.783 1733.95 L 526.676 1661.99 z"/>
<path transform="translate(0,0)" fill="rgb(56,58,138)" d="M 920.521 1681.1 L 921.633 1681.03 C 944.372 1679.76 948.718 1692.43 949.063 1712.32 C 939.706 1712.45 924.567 1711.01 916.03 1713.24 L 915.682 1714.95 C 922.263 1725.88 934.574 1723.23 944.046 1718.31 C 944.863 1722.14 946.466 1726.76 947.663 1730.56 C 946.788 1730.94 945.908 1731.31 945.024 1731.67 C 935.579 1735.48 924.491 1737.04 914.975 1732.57 C 908.67 1729.65 903.857 1724.24 901.677 1717.64 C 896.068 1701.16 904.289 1686.46 920.521 1681.1 z"/>
<path transform="translate(0,0)" fill="rgb(255,255,255)" d="M 923.021 1691.88 C 928.674 1692.15 934.798 1693.63 935.322 1700.35 C 932.755 1702.56 933.602 1701.86 929.25 1701.89 C 925.067 1701.98 917.634 1703.34 916.056 1699.06 C 917.962 1695.35 919.622 1694.53 923.021 1691.88 z"/>
<path transform="translate(0,0)" fill="rgb(56,58,138)" d="M 1408.46 1681.1 C 1409.18 1681.04 1409.9 1681 1410.62 1680.96 C 1432.83 1679.94 1437.09 1692.94 1437.47 1711.99 C 1430.45 1712.2 1406.98 1709.78 1403.63 1715.22 C 1407.66 1727.41 1423.29 1722.21 1431.3 1718.66 C 1432.83 1722.07 1434.37 1726.2 1435.78 1729.71 C 1433.85 1730.65 1431.89 1731.54 1429.91 1732.36 C 1421.79 1735.65 1410.99 1736.22 1402.92 1732.45 C 1396.51 1729.47 1391.62 1723.96 1389.43 1717.23 C 1383.9 1700.74 1392.64 1686.66 1408.46 1681.1 z"/>
<path transform="translate(0,0)" fill="rgb(255,255,255)" d="M 1411.13 1691.87 C 1416.76 1692.16 1423.33 1694.18 1423.67 1700.74 C 1420.96 1702.74 1422.43 1701.93 1418.25 1702.03 C 1413.08 1702.21 1408.09 1703.15 1403.93 1700.45 L 1403.86 1698.45 C 1406.15 1694.94 1407.58 1694.33 1411.13 1691.87 z"/>
<path transform="translate(0,0)" fill="rgb(56,58,138)" d="M 1472.01 1681.1 C 1472.99 1681.04 1473.97 1680.99 1474.96 1680.95 C 1502.58 1679.94 1495.91 1714.56 1495.37 1733.28 L 1480.69 1733.76 C 1480.81 1721 1486.36 1690.93 1467.91 1693.9 C 1467.29 1694.44 1465.5 1696.08 1465.08 1696.56 C 1460.23 1702.11 1462 1724.94 1462.03 1733.28 L 1447.34 1733.71 C 1447.11 1716.71 1447.33 1699.23 1447.34 1682.19 C 1453.74 1681.99 1456.35 1680.93 1461.53 1685.28 C 1464.91 1685.59 1468.44 1682.93 1472.01 1681.1 z"/>
<path transform="translate(0,0)" fill="rgb(56,58,138)" d="M 747.006 1682.15 L 761.126 1682.05 L 761.375 1702.11 C 761.853 1712.41 761.691 1723.13 761.69 1733.48 C 758.079 1733.66 751.924 1734.4 748.816 1733.21 C 748.325 1731.62 747.858 1730.17 747.303 1728.61 C 742.732 1731.38 737.764 1735.03 732.284 1735.27 C 707.682 1736.31 713.699 1699.17 714.091 1682.39 L 728.333 1682.24 C 728.323 1689.38 727.53 1716.69 729.849 1718.64 C 751.968 1737.27 747.06 1687.79 747.006 1682.15 z"/>
<path transform="translate(0,0)" fill="rgb(56,58,138)" d="M 1000.98 1655.2 C 1005.99 1654.75 1011.23 1654.97 1016.28 1655.05 C 1016.3 1658.78 1016.81 1662.89 1014.92 1665.9 C 1012.42 1668.08 1010.96 1667.9 1007.64 1668.3 L 1006.42 1668.43 C 1004.08 1670.32 1003.6 1670.31 1002.96 1673.77 C 1000.38 1687.88 1009.23 1677.1 1015.99 1686.22 C 1016.5 1689.42 1015.55 1690.92 1014.37 1693.95 C 1011.87 1695.16 1005.9 1694.76 1002.84 1694.76 L 1002.64 1731.76 L 1001.85 1732.91 C 997.942 1733.98 992.187 1733.61 987.969 1733.56 C 987.94 1726.61 989.623 1698.78 986.289 1695.22 C 983.321 1695.16 980.653 1695.53 978.277 1693.97 C 977.024 1684.65 977.327 1683.77 985.069 1682.69 C 995.254 1673.31 979.947 1664.7 1000.98 1655.2 z"/>
<path transform="translate(0,0)" fill="rgb(56,58,138)" d="M 618.21 1681.96 C 623.305 1682.17 628.805 1682.07 633.937 1682.08 L 617.253 1707.01 C 621.122 1712.52 632.323 1727.74 633.396 1733.27 L 631.25 1733.79 L 617.868 1733.51 L 607.47 1716.2 C 604.675 1721.75 599.997 1728.43 596.47 1733.76 L 580.44 1733.68 C 586.748 1725.26 593.084 1715.67 599.093 1706.96 C 592.663 1698.26 587.792 1691.15 581.951 1682.11 L 597.746 1682.42 C 601.28 1687.34 604.32 1692.43 607.495 1697.58 C 610.985 1692.94 614.887 1686.85 618.21 1681.96 z"/>
<path transform="translate(0,0)" fill="rgb(56,58,138)" d="M 786.433 1681.17 C 798.213 1680.5 800.676 1680.93 811.352 1685.66 L 805.603 1696.62 C 799.56 1693.38 792.523 1690.12 786.777 1695.43 C 787.384 1703.61 822.623 1705.4 810.99 1724.5 C 806.26 1732.27 803.417 1732.89 794.708 1735.07 C 782.312 1735.08 780.824 1735 769.11 1729.86 L 775.322 1718.21 C 780.591 1722.41 796.022 1727.04 798.589 1719.45 C 793.734 1710.43 775.074 1713.18 772.153 1704.16 C 767.793 1690.69 776.357 1684.6 786.433 1681.17 z"/>
<path transform="translate(0,0)" fill="rgb(56,58,138)" d="M 842.592 1682.2 L 857.708 1682.31 C 862.259 1694.1 867.476 1706.78 869.906 1719.09 C 873.991 1705.95 877.387 1695.54 882.259 1682.62 L 897.484 1682.35 L 893.491 1693.24 C 888.267 1706.62 882.769 1720.24 878.147 1733.82 C 872.853 1733.95 867.139 1733.86 861.81 1733.88 C 857.145 1718.64 848.395 1697.73 842.592 1682.2 z"/>
<path transform="translate(0,0)" fill="rgb(56,58,138)" d="M 658.763 1681.13 C 669.734 1680.54 671.286 1680.43 681.123 1685.26 L 675.407 1696.57 C 656.474 1687.12 646.56 1702.67 655.428 1719.06 C 657.943 1723.71 671.206 1720.58 675.901 1720.04 L 677.194 1722.29 C 678.417 1725.07 678.869 1726.36 679.762 1729.17 C 678.162 1732.2 676.11 1732.76 672.773 1733.85 C 637.348 1745.45 620.146 1692.03 658.763 1681.13 z"/>
<path transform="translate(0,0)" fill="rgb(217,36,31)" d="M 883.025 1395.34 C 889.564 1392.95 896.881 1394.28 902.167 1398.81 C 907.453 1403.34 909.887 1410.36 908.534 1417.19 C 907.182 1424.02 902.254 1429.59 895.641 1431.76 C 885.643 1435.04 874.861 1429.7 871.417 1419.75 C 867.972 1409.81 873.139 1398.94 883.025 1395.34 z"/>
<path transform="translate(0,0)" fill="rgb(56,58,138)" d="M 687.088 1656.11 L 701.498 1655.99 C 702.416 1680.07 701.385 1709.48 701.137 1733.82 L 686.855 1733.8 C 687.298 1708.19 687.034 1681.79 687.088 1656.11 z"/>
<path transform="translate(0,0)" fill="rgb(56,58,138)" d="M 1105.07 1681.13 C 1111.71 1680.68 1116.59 1680.77 1115.6 1690.4 C 1114.92 1697.01 1106.69 1693.66 1100.7 1696.69 C 1093.54 1704.04 1098.91 1720.54 1096.46 1732.67 C 1093.67 1734.33 1089.22 1733.95 1085.75 1734 L 1083.56 1733.79 C 1080.66 1730.14 1081.97 1688.96 1082 1682.14 C 1083.39 1682.07 1084.78 1682.02 1086.17 1681.97 C 1092.36 1681.79 1092.67 1681.74 1097.2 1686.18 C 1100.06 1686.37 1102.27 1683.49 1105.07 1681.13 z"/>
<path transform="translate(0,0)" fill="rgb(111,179,41)" d="M 1355.23 1450.18 C 1364.12 1448.27 1372.92 1453.82 1375.02 1462.68 C 1377.12 1471.54 1371.75 1480.45 1362.94 1482.73 C 1357.07 1484.26 1350.84 1482.49 1346.65 1478.11 C 1342.46 1473.73 1340.96 1467.42 1342.74 1461.63 C 1344.52 1455.83 1349.3 1451.45 1355.23 1450.18 z"/>
<path transform="translate(0,0)" fill="rgb(56,58,138)" d="M 821.775 1682.26 L 836.139 1682.61 C 836.147 1694.45 836.872 1722.7 835.564 1733.61 L 821.246 1733.85 C 821.292 1716.65 821.469 1699.45 821.775 1682.26 z"/>
<path transform="translate(0,0)" fill="rgb(56,58,138)" d="M 825.514 1656.43 C 828.68 1655.44 832.132 1656.25 834.533 1658.53 C 836.934 1660.82 837.905 1664.23 837.07 1667.44 C 836.234 1670.65 833.724 1673.16 830.513 1673.98 C 825.718 1675.22 820.812 1672.41 819.456 1667.64 C 818.1 1662.88 820.788 1657.91 825.514 1656.43 z"/>
</svg>